<svg xmlns="http://www.w3.org/2000/svg" viewBox="0 0 109 28">
  <g id="Group_7" data-name="Group 7" transform="translate(-140 -52)">
    <path id="Path_16" data-name="Path 16" d="M-563.445-555.867H-573.87a9.048,9.048,0,0,1-9.024-9.024,9.048,9.048,0,0,1,9.024-9.024,9.043,9.043,0,0,1,7.031,3.3,1.078,1.078,0,0,0,1.486.145,1.078,1.078,0,0,0,.145-1.486,11.134,11.134,0,0,0-8.589-4.059A11.159,11.159,0,0,0-584.96-564.89a11.2,11.2,0,0,0,11.126,11.126h10.426a1.029,1.029,0,0,0,1.051-1.051A1.06,1.06,0,0,0-563.445-555.867ZM-579.6-564.89a5.777,5.777,0,0,1,5.762-5.762,5.773,5.773,0,0,1,4.421,2.066,1.078,1.078,0,0,0,1.486.145,1.078,1.078,0,0,0,.145-1.486,7.81,7.81,0,0,0-6.052-2.863,7.857,7.857,0,0,0-7.864,7.864,7.857,7.857,0,0,0,7.864,7.864h8.07a1.029,1.029,0,0,0,1.051-1.051,1.009,1.009,0,0,0-1.051-1.051h-8.106A5.715,5.715,0,0,1-579.6-564.89Zm5.69,4.566Z" transform="translate(-422.357 -498.89) rotate(-180)" fill="#136fde"/>
  </g>
</svg>
